<svg xmlns="http://www.w3.org/2000/svg" xml:space="preserve" width="512" height="512" viewBox="0 0 682.667 682.667">
  <defs>
    <clipPath id="a" clipPathUnits="userSpaceOnUse">
      <path fill="#1e88e5" d="M0 512h512V0H0Z" data-original="#000000"/>
    </clipPath>
  </defs>
  <g fill="none" stroke="#1e88e5" stroke-linecap="round" stroke-linejoin="round" stroke-miterlimit="10" stroke-width="20" clip-path="url(#a)" transform="matrix(1.33333 0 0 -1.33333 0 682.667)">
    <path d="M116.299 254.032a28.125 28.125 0 0 0 8.911 25.698L287.1 425.28a46.674 46.674 0 0 1 14.585 35.447l-.58 17.703c-.279 8.491-7.097 15.31-15.588 15.588l-17.703.58a46.679 46.679 0 0 1-35.448-14.584L86.817 318.124a28.126 28.126 0 0 0-25.699-8.912l-24.469 4.223L10 286.786l60.553-23.319 23.319-60.553 26.65 26.648z" data-original="#000000"/>
    <path d="m150.081 388.478-106.93 74.363 24.313 24.311 129.304-46.753ZM290.46 264.154l-24.312-24.312-70.29 103.416 51.625 46.389z" data-original="#000000"/>
    <path d="M497.1 266.538c-20.368 91.486-102.003 159.879-199.619 159.879-3.16 0-6.311-.07-9.441-.22-.309-.31-.62-.62-.94-.92L125.213 279.734a28.13 28.13 0 0 1-8.912-25.696l4.222-24.478-26.652-26.643-.05.13c9.509-104.11 97.059-185.67 203.66-185.67 98.243 0 180.299 69.282 200.004 161.648" data-original="#000000"/>
    <path d="M497.099 266.537c-8.728 39.205-28.69 74.171-56.358 101.32H385.72c-12.569 0-22.76-10.191-22.76-22.77v-12.06c0-12.571 10.191-22.761 22.76-22.761a28.656 28.656 0 0 0 20.341-8.429 28.644 28.644 0 0 0 8.43-20.341v-38.25a51.537 51.537 0 0 0-15.09-36.439L343 150.407a27.77 27.77 0 0 1-8.139-19.641v-30.089c0-7.37 2.929-14.431 8.139-19.64l43.37-43.38c56.022 27.073 97.807 78.947 111.122 141.367M271.93 137.537l-34.05-34.04a15.493 15.493 0 0 1-4.54-10.96v-64.89c-52.779 17.4-96.05 55.73-120 105.15l29.391 29.38a15.45 15.45 0 0 0 10.949 4.54h54.21c4.11 0 8.05 1.63 10.96 4.54l9.681 9.68c6.049 6.05 15.859 6.05 21.909 0l21.49-21.49c6.051-6.05 6.051-15.86 0-21.91ZM502 221.897h0" data-original="#000000"/>
  </g>
</svg>
