<svg xmlns="http://www.w3.org/2000/svg" xml:space="preserve" width="512" height="512" viewBox="0 0 682.667 682.667">
  <defs>
    <clipPath id="a" clipPathUnits="userSpaceOnUse">
      <path fill="#1e88e5" d="M0 512h512V0H0Z" data-original="#000000"/>
    </clipPath>
  </defs>
  <g fill="none" stroke="#1e88e5" stroke-linecap="round" stroke-linejoin="round" stroke-miterlimit="10" stroke-width="20" clip-path="url(#a)" transform="matrix(1.33333 0 0 -1.33333 0 682.667)">
    <path d="M23.423 268.258V27.389h236.42v329.877l-118.21 127.659-118.21-127.659" data-original="#000000"/>
    <path d="M502 194.245 334.827 27.072l-74.983 74.983v255.208l-71.234 76.928h80.131zM171.078 219.3c0 12.058-9.775 21.833-21.833 21.833h-15.223c-12.058 0-21.833-9.775-21.833-21.833v-16.214c0-12.058 9.775-21.833 21.833-21.833h15.223c12.058 0 21.833-9.775 21.833-21.833v-15.533c0-12.058-9.775-21.833-21.833-21.833h-15.223c-12.058 0-21.833 9.775-21.833 21.833m29.445 97.245v17.858m0-154.795v17.858m29.148 227.872c0-16.099-13.05-29.149-29.148-29.149-16.099 0-29.149 13.05-29.149 29.149s13.05 29.149 29.149 29.149c16.098 0 29.148-13.05 29.148-29.149Zm-36.794 8.7L10 482.613" data-original="#000000"/>
    <path d="m418.464 198.6-114.77 114.77-43.85-43.851v-88.132l70.708-70.708 25.74 25.742m-66.273 78.617 23.858 23.858m6.069-53.786 23.858 23.858M23.423 312.397h0m365.082-143.759h0" data-original="#000000"/>
  </g>
</svg>
