<svg xmlns="http://www.w3.org/2000/svg" xml:space="preserve" width="512" height="512" viewBox="0 0 682.667 682.667">
  <defs>
    <clipPath id="a" clipPathUnits="userSpaceOnUse">
      <path fill="#1e88e5" d="M0 512h512V0H0Z" data-original="#000000"/>
    </clipPath>
  </defs>
  <g fill="none" stroke="#1e88e5" stroke-linecap="round" stroke-linejoin="round" stroke-miterlimit="10" stroke-width="20" clip-path="url(#a)" transform="matrix(1.33333 0 0 -1.33333 0 682.667)">
    <path d="M158.277 352.182c13.296-4.493 27.537-6.934 42.35-6.934 30.25 0 58.122 10.166 80.401 27.26 19.699-15.583 44.147-25.409 70.813-27.005a1.616 1.616 0 0 1 1.704 1.613" data-original="#000000"/>
    <path d="M158.357 260.415H141.6c-27.097 0-49.063 21.966-49.063 49.063h0c0 27.097 21.966 49.064 49.063 49.064h16.757zm195.28 0h16.757c27.097 0 49.063 21.966 49.063 49.063h0c0 27.097-21.966 49.064-49.063 49.064h-16.757Z" data-original="#000000"/>
    <path d="M391.805 358.478v7.717C391.805 441.198 331.003 502 256 502h0c-75.003 0-135.805-60.802-135.805-135.805v-7.717" data-original="#000000"/>
    <path d="M353.396 357.193v7.408c0 53.706-43.693 97.399-97.4 97.399-53.706 0-97.399-43.693-97.399-97.399v-7.408m127.489-106.202h56.664m-79.617 20.08h-13.387c-11.089 0-20.079-8.99-20.079-20.08h0c0-11.09 8.99-20.08 20.079-20.08h13.387c11.09 0 20.08 8.99 20.08 20.08h0c0 11.09-8.99 20.08-20.08 20.08Z" data-original="#000000"/>
    <path d="M158.357 337.785v-49.39c0-53.927 43.716-97.643 97.643-97.643h.001c53.927 0 97.643 43.716 97.643 97.643v44.494M214.226 164.674v33.895M211 10H10h0c0 81.515 66.081 147.595 147.596 147.595h31.155m132.843 0h32.811C435.919 157.595 502 91.514 502 10h0-201m-3.226 188.57v-33.895" data-original="#000000"/>
    <path d="m255.91 122.812 47.898-47.898 47.305 69.544-50.904 22.653-44.299-44.299m0 0-47.898-47.898-47.305 69.544 50.904 22.653 44.299-44.299M256 10h0" data-original="#000000"/>
  </g>
</svg>
